<?xml version="1.0" standalone="no"?>
<!DOCTYPE svg PUBLIC "-//W3C//DTD SVG 20010904//EN"
 "http://www.w3.org/TR/2001/REC-SVG-20010904/DTD/svg10.dtd">
<svg version="1.0" xmlns="http://www.w3.org/2000/svg"
 width="512.000000pt" height="512.000000pt" viewBox="0 0 512.000000 512.000000"
 preserveAspectRatio="xMidYMid meet">
<metadata>
Created by potrace 1.14, written by Peter Selinger 2001-2017
</metadata>
<g transform="translate(0.000000,512.000000) scale(0.100000,-0.100000)"
fill="#000000" stroke="none">
<path d="M2247 5105 c-557 -68 -1064 -310 -1471 -705 -425 -412 -689 -938
-761 -1520 -20 -162 -20 -478 0 -640 99 -796 568 -1500 1269 -1905 386 -223
812 -335 1276 -335 714 0 1349 269 1845 781 391 404 631 905 700 1459 20 162
20 478 0 640 -91 730 -489 1380 -1105 1802 -338 231 -724 375 -1138 423 -154
18 -464 18 -615 0z m801 -681 c22 -15 22 -17 22 -285 l0 -269 78 0 c266 -1
461 -145 517 -382 12 -53 15 -220 15 -1098 0 -1128 0 -1117 -57 -1222 -34 -62
-111 -149 -159 -178 -19 -12 -34 -28 -34 -35 0 -35 -44 -127 -81 -169 -134
-151 -354 -151 -488 0 -22 25 -46 62 -53 80 l-12 34 -236 0 -236 0 -18 -41
c-39 -87 -115 -149 -218 -175 -176 -46 -360 71 -393 249 -5 27 -16 42 -39 57
-50 30 -131 121 -160 178 -58 114 -56 75 -56 1215 0 1149 -1 1127 59 1232 95
164 231 242 439 252 l112 6 0 265 c0 233 2 268 17 284 15 17 44 18 487 18 411
0 474 -2 494 -16z"/>
<path d="M2144 4327 c-2 -7 -3 -107 -2 -222 l3 -210 413 -3 412 -2 0 225 0
225 -410 0 c-324 0 -412 -3 -416 -13z"/>
<path d="M1859 3666 c-68 -18 -133 -60 -168 -108 -56 -76 -61 -111 -61 -435
l0 -293 360 0 360 0 0 75 c0 72 1 76 26 85 14 6 98 10 187 10 204 0 207 -1
207 -101 l0 -69 358 2 357 3 0 300 c0 272 -2 305 -19 350 -25 65 -94 137 -159
166 l-52 24 -675 2 c-514 2 -686 -1 -721 -11z"/>
<path d="M2440 2785 l0 -115 120 0 121 0 -3 113 -3 112 -117 3 -118 3 0 -116z"/>
<path d="M1634 2727 c-2 -7 -3 -328 -2 -712 l3 -700 23 -46 c31 -63 85 -117
146 -145 l51 -24 705 0 705 0 50 24 c63 29 126 97 151 162 18 46 19 84 19 749
l0 700 -357 3 -358 2 0 -69 c0 -103 4 -101 -209 -101 -126 0 -182 4 -194 13
-12 9 -17 31 -19 82 l-3 70 -353 3 c-282 2 -354 0 -358 -11z"/>
<path d="M1800 908 c0 -26 78 -105 121 -122 95 -38 208 -12 269 62 17 20 30
39 30 43 0 3 -82 9 -182 12 -101 3 -195 9 -210 13 -21 5 -28 3 -28 -8z"/>
<path d="M3235 910 c-27 -5 -114 -9 -192 -9 -85 -1 -143 -5 -143 -11 0 -20 63
-80 106 -100 49 -24 130 -29 180 -10 42 16 93 58 115 94 31 50 31 51 -66 36z"/>
</g>
</svg>
